<?xml version="1.0" encoding="UTF-8"?>
<svg version="1.1" xmlns="http://www.w3.org/2000/svg" width="740" height="740">
<path d="M0 0 C244.2 0 488.4 0 740 0 C740 244.2 740 488.4 740 740 C495.8 740 251.6 740 0 740 C0 495.8 0 251.6 0 0 Z " fill="#FEFEFE" transform="translate(0,0)"/>
<path d="M0 0 C145.2 0 290.4 0 440 0 C440 87.78 440 175.56 440 266 C294.8 266 149.6 266 0 266 C0 178.22 0 90.44 0 0 Z " fill="#FEFEFE" transform="translate(150,231)"/>
<path d="M0 0 C0.75920921 -0.00350607 1.51841842 -0.00701215 2.30063397 -0.01062447 C4.85930886 -0.019971 7.41775777 -0.01500682 9.97644234 -0.01015663 C11.82353086 -0.01389125 13.6706178 -0.01849201 15.51770222 -0.02388728 C20.60500424 -0.0361559 25.69224068 -0.03585228 30.77955413 -0.03349853 C36.2615961 -0.03309134 41.74361677 -0.04412011 47.22564888 -0.05361366 C57.970119 -0.07024556 68.71456718 -0.07572419 79.45904909 -0.07683842 C88.18983705 -0.07778781 96.92061776 -0.08189265 105.65140343 -0.08823967 C126.36142817 -0.10298951 147.07144809 -0.11528877 167.78147888 -0.11424255 C168.77523791 -0.11419582 168.77523791 -0.11419582 169.78907289 -0.11414814 C173.14703588 -0.11398192 176.50499888 -0.11378384 179.86296187 -0.11357872 C180.5298823 -0.11353883 181.19680273 -0.11349894 181.88393286 -0.11345784 C183.23260869 -0.11337697 184.58128451 -0.11329337 185.92996033 -0.11320706 C206.91627671 -0.11198137 227.90252848 -0.12699715 248.88882637 -0.15435219 C272.45901106 -0.18506249 296.02916478 -0.20225999 319.59937298 -0.20042574 C332.08230976 -0.1997609 344.56517367 -0.20529457 357.0480938 -0.22678185 C367.67512741 -0.24495687 378.30205513 -0.24937127 388.92909752 -0.235763 C394.35360655 -0.22921487 399.7779122 -0.22918254 405.20240211 -0.2464695 C410.16551578 -0.26212381 415.12826353 -0.25941516 420.09136786 -0.24190123 C421.88946049 -0.23881443 423.68757993 -0.24252647 425.48564099 -0.25362138 C427.92563719 -0.26768344 430.36433933 -0.25720373 432.80429077 -0.24050903 C433.50613206 -0.25044539 434.20797334 -0.26038175 434.93108255 -0.27061921 C439.89142809 -0.19862228 442.749379 1.08412106 446.52798653 4.25726891 C448.59208491 7.20703282 448.77722685 9.61569997 448.77408218 13.1691761 C448.77806428 14.16294124 448.78204638 15.15670639 448.78614914 16.18058562 C448.78032346 17.27007262 448.77449778 18.35955963 448.76849556 19.48206139 C448.77105883 21.22065591 448.77105883 21.22065591 448.77367389 22.99437356 C448.776401 26.21204143 448.7701412 29.42954862 448.76011777 32.64719748 C448.7514883 36.11682555 448.75440307 39.586446 448.75592232 43.05608177 C448.75697149 49.06761771 448.75069154 55.07911027 448.73944664 61.0906353 C448.72319895 69.78230623 448.71798438 78.47395615 448.71547066 87.16564062 C448.71109241 101.26699606 448.69777977 115.36832837 448.67886543 129.46967125 C448.66051 143.1685633 448.64635185 156.86744907 448.63784981 170.56635094 C448.63706164 171.83275422 448.63706164 171.83275422 448.63625754 173.12474141 C448.63364749 177.36015099 448.63112007 181.59556063 448.62863374 185.83097029 C448.60789719 220.97308631 448.57266811 256.11517548 448.52798653 291.25726891 C449.36514702 291.25504829 450.20230751 291.25282768 451.0648365 291.25053978 C458.93766067 291.23053858 466.81047636 291.21529565 474.68332005 291.20545673 C478.73124395 291.20022849 482.77914693 291.19313192 486.82705879 291.18182945 C490.73034624 291.17099847 494.63361352 291.16499163 498.53691483 291.16239166 C500.029323 291.16053779 501.52173001 291.1569179 503.01412964 291.15153885 C505.09746792 291.1443256 507.18072184 291.14327808 509.26407051 291.14374352 C510.4520977 291.1415229 511.64012489 291.13930229 512.86415291 291.13701439 C515.52798653 291.25726891 515.52798653 291.25726891 516.52798653 292.25726891 C517.24830715 297.03217776 518.0021351 302.17659054 515.09439278 306.28070641 C507.47158982 312.3237333 497.96496709 313.71026398 488.50442028 313.63758564 C487.54224627 313.64224556 486.58007225 313.64690548 485.58874145 313.65170661 C482.37564588 313.66362488 479.16297563 313.65427324 475.94987679 313.64494896 C473.61857104 313.64912324 471.28726732 313.65460128 468.95596737 313.66126877 C463.22802454 313.6742148 457.50020291 313.67323282 451.7722524 313.66630639 C444.90803061 313.65877992 438.04386134 313.66867138 431.17964715 313.67900958 C417.73107792 313.69866506 404.28254727 313.70102608 390.83396711 313.69581438 C379.06420748 313.69125557 367.29446311 313.69185843 355.52470398 313.69765472 C353.94536231 313.69841159 352.36602065 313.69916757 350.78667898 313.69992267 C348.40670113 313.70106787 346.02672329 313.70221775 343.64674545 313.70338191 C321.52317899 313.71408522 299.39961762 313.71881385 277.27604961 313.71091175 C276.44227113 313.71061458 275.60849265 313.7103174 274.74944815 313.71001123 C267.97875743 313.70756234 261.20806678 313.70495073 254.43737614 313.70232709 C228.0257423 313.69222402 201.61417204 313.70058189 175.20254707 313.72382164 C145.52164801 313.74989586 115.84078723 313.76274183 86.15987629 313.75563389 C82.99494581 313.75491784 79.83001533 313.75424345 76.66508484 313.75359344 C75.49617479 313.75333873 75.49617479 313.75333873 74.3036504 313.75307887 C62.54277274 313.75077636 50.78193063 313.75875056 39.02106094 313.77188492 C25.64582482 313.78679564 12.270672 313.78763996 -1.10456233 313.76981401 C-7.92916873 313.76109276 -14.75363012 313.7586732 -21.578228 313.77446556 C-27.82615355 313.78827233 -34.07378314 313.78360075 -40.3216914 313.76422632 C-42.58133012 313.76045375 -44.84099232 313.76342431 -47.10061019 313.77383798 C-68.8536604 313.86695651 -68.8536604 313.86695651 -77.47201347 309.25726891 C-78.12167829 308.94596187 -78.77134312 308.63465483 -79.44069475 308.31391424 C-81.15951347 307.25726891 -81.15951347 307.25726891 -83.47201347 304.25726891 C-84.00829155 300.20300668 -83.96370311 296.31526435 -83.47201347 292.25726891 C-82.47201347 291.25726891 -82.47201347 291.25726891 -79.80817986 291.13701439 C-78.62015266 291.139235 -77.43212547 291.14145561 -76.20809746 291.14374352 C-75.22764458 291.14352448 -75.22764458 291.14352448 -74.22738457 291.14330101 C-72.05759219 291.14400008 -69.88788468 291.15179213 -67.71810722 291.15961266 C-66.21738037 291.16147686 -64.7166529 291.16290075 -63.21592522 291.16390038 C-59.25883121 291.16772538 -55.30177369 291.17755551 -51.34469414 291.18860435 C-47.30966498 291.19881885 -43.27462995 291.20339808 -39.2395916 291.20844078 C-31.31704878 291.2191778 -23.39453566 291.23625401 -15.47201347 291.25726891 C-15.47353235 290.65823212 -15.47505124 290.05919534 -15.47661614 289.44200593 C-15.56609372 253.95230419 -15.63474211 218.46262183 -15.67627479 182.97283079 C-15.68127773 178.7132325 -15.686455 174.45363443 -15.69174004 170.19403648 C-15.69278928 169.34601344 -15.69383852 168.4979904 -15.69491956 167.62426969 C-15.71233328 153.8862433 -15.74387628 140.14828373 -15.78062466 126.41029701 C-15.81800719 112.31789239 -15.84024363 98.22552282 -15.84836745 84.13307065 C-15.85386082 75.43454677 -15.87122215 66.73621178 -15.90367934 58.03774603 C-15.92479407 52.07599465 -15.93122044 46.11434117 -15.92601898 40.15255509 C-15.92345242 36.71087816 -15.92743587 33.26953171 -15.94883537 29.82791328 C-15.96865237 26.09843572 -15.96398195 22.36977511 -15.95303154 18.64027977 C-15.96468291 17.54981466 -15.97633427 16.45934955 -15.98833871 15.33584005 C-15.93028353 8.05185972 -15.93028353 8.05185972 -13.69194984 4.17083073 C-9.28282282 0.37020957 -5.71051489 -0.03322445 0 0 Z M-3.47201347 16.25726891 C-3.47201347 104.03726891 -3.47201347 191.81726891 -3.47201347 282.25726891 C141.72798653 282.25726891 286.92798653 282.25726891 436.52798653 282.25726891 C436.52798653 194.47726891 436.52798653 106.69726891 436.52798653 16.25726891 C291.32798653 16.25726891 146.12798653 16.25726891 -3.47201347 16.25726891 Z " fill="#010101" transform="translate(153.47201347351074,214.74273109436035)"/>
<path d="M0 0 C0.95648571 0.00234117 1.91297143 0.00468233 2.89844155 0.00709444 C4.41419412 0.00491428 4.41419412 0.00491428 5.96056795 0.00269008 C9.39203238 -0.00099816 12.82345318 0.00252948 16.25491738 0.00595194 C18.7216986 0.00480124 21.18847964 0.00321406 23.65526032 0.0012247 C29.04192581 -0.00209577 34.42857807 -0.00226968 39.81524301 0.00027186 C47.82515492 0.0040409 55.83505832 0.00212762 63.84497017 -0.00093645 C78.14732942 -0.00621356 92.44968422 -0.00574129 106.7520439 -0.00285754 C119.26795582 -0.00034624 131.7838661 0.00031671 144.29977822 -0.00088018 C145.54301049 -0.00099476 145.54301049 -0.00099476 146.81135856 -0.00111165 C150.17545049 -0.00142297 153.53954243 -0.00174137 156.90363436 -0.00207142 C188.48917533 -0.00513338 220.07471345 -0.00235226 251.66025397 0.00302548 C279.74861335 0.00777141 307.8369682 0.0073468 335.92532754 0.00256449 C367.45151042 -0.00278514 398.97769079 -0.00491627 430.50387406 -0.00182325 C433.86198958 -0.00150251 437.22010509 -0.00118967 440.57822061 -0.00088018 C441.8185857 -0.00076157 441.8185857 -0.00076157 443.08400868 -0.00064055 C455.59489739 0.00049899 468.10578429 -0.0008372 480.61667275 -0.00335974 C494.8359659 -0.00621236 509.05525388 -0.00551837 523.27454638 -0.00007899 C531.24166595 0.00286782 539.20877434 0.00303389 547.17589363 -0.00072517 C553.10838058 -0.00321656 559.04085755 -0.0005349 564.97334337 0.00424941 C567.38583197 0.00537479 569.79832205 0.00477978 572.21080971 0.00237362 C575.46708096 -0.00062722 578.72328942 0.00241084 581.97955728 0.00709444 C582.93604299 0.00475328 583.8925287 0.00241211 584.87799883 0 C591.32484908 0.01878525 591.32484908 0.01878525 592.43899941 1.13293558 C593.15932003 5.90784444 593.91314799 11.05225722 591.00540566 15.15637308 C583.38260271 21.19939997 573.87597997 22.58593066 564.41543317 22.51325232 C563.45325915 22.51791224 562.49108514 22.52257216 561.49975434 22.52737328 C558.28665877 22.53929156 555.07398852 22.52993992 551.86088967 22.52061564 C549.52958392 22.52478992 547.19828021 22.53026795 544.86698025 22.53693545 C539.13903743 22.54988148 533.41121579 22.54889949 527.68326529 22.54197306 C520.8190435 22.53444659 513.95487422 22.54433806 507.09066004 22.55467626 C493.64209081 22.57433173 480.19356015 22.57669275 466.74497999 22.57148106 C454.97522037 22.56692225 443.205476 22.56752511 431.43571687 22.5733214 C429.8563752 22.57407827 428.27703354 22.57483425 426.69769187 22.57558935 C424.31771402 22.57673455 421.93773617 22.57788443 419.55775833 22.57904859 C397.43419188 22.5897519 375.31063051 22.59448053 353.1870625 22.58657843 C351.93639478 22.58613267 351.93639478 22.58613267 350.66046103 22.5856779 C343.88977032 22.58322901 337.11907967 22.58061741 330.34838902 22.57799377 C303.93675519 22.5678907 277.52518493 22.57624856 251.11355996 22.59948832 C221.4326609 22.62556254 191.75180011 22.63840851 162.07088917 22.63130057 C158.9059587 22.63058452 155.74102822 22.62991013 152.57609773 22.62926012 C151.40718768 22.62900541 151.40718768 22.62900541 150.21466329 22.62874555 C138.45378563 22.62644303 126.69294352 22.63441723 114.93207383 22.6475516 C101.55683771 22.66246232 88.18168489 22.66330664 74.80645055 22.64548068 C67.98184415 22.63675944 61.15738277 22.63433988 54.33278489 22.65013224 C48.08485934 22.66393901 41.83722974 22.65926743 35.58932149 22.639893 C33.32968277 22.63612043 31.07002057 22.63909099 28.8104027 22.64950465 C7.05735249 22.74262319 7.05735249 22.74262319 -1.56100059 18.13293558 C-2.21066541 17.82162854 -2.86033023 17.5103215 -3.52968186 17.18958092 C-5.24850059 16.13293558 -5.24850059 16.13293558 -7.56100059 13.13293558 C-8.09727866 9.07867336 -8.05269022 5.19093103 -7.56100059 1.13293558 C-5.60441957 -0.82364544 -2.60505257 0.00759077 0 0 Z " fill="#727272" transform="translate(77.56100058555603,505.86706441640854)"/>
<path d="M0 0 C0.33 0 0.66 0 1 0 C1.33 59.73 1.66 119.46 2 181 C6.19174654 179.95206337 7.21592961 179.08236365 10 176 C9.7215625 177.2065625 9.7215625 177.2065625 9.4375 178.4375 C9.293125 179.283125 9.14875 180.12875 9 181 C9.33 181.33 9.66 181.66 10 182 C10.33 124.58 10.66 67.16 11 8 C156.86 8 302.72 8 453 8 C453.33 40.01 453.66 72.02 454 105 C455.98 102.69 457.96 100.38 460 98 C460.66 97.67 461.32 97.34 462 97 C462.33 65.32 462.66 33.64 463 1 C463.33 1 463.66 1 464 1 C464 94.39 464 187.78 464 284 C310.88 284 157.76 284 0 284 C0 190.28 0 96.56 0 0 Z M12 9 C12 96.78 12 184.56 12 275 C157.2 275 302.4 275 452 275 C452 187.22 452 99.44 452 9 C306.8 9 161.6 9 12 9 Z " fill="#141414" transform="translate(138,222)"/>
<path d="M0 0 C20.46 0 40.92 0 62 0 C61.67 1.65 61.34 3.3 61 5 C60.34 5 59.68 5 59 5 C59 5.99 59 6.98 59 8 C59.66 8.33 60.32 8.66 61 9 C60.34 9.99 59.68 10.98 59 12 C60.10052159 12.00173625 61.20104318 12.0034725 62.33491391 12.00526136 C110.82324111 12.08182452 159.31156614 12.159612 207.79988098 12.2436676 C208.53366396 12.24493928 209.26744693 12.24621096 210.02346575 12.24752118 C225.96952295 12.27516381 241.91557976 12.30302683 257.86163617 12.33111694 C265.68127626 12.34489045 273.50091643 12.35861525 281.32055664 12.37231445 C282.09871589 12.37367854 282.87687514 12.37504262 283.67861497 12.37644804 C308.91310477 12.4206603 334.14759857 12.46165431 359.38209642 12.50098413 C385.30804867 12.54140859 411.2339935 12.58507037 437.15993335 12.63282111 C440.81955158 12.63955993 444.47916988 12.64626164 448.13878822 12.65294075 C448.85907251 12.65425648 449.57935679 12.65557221 450.32146788 12.6569278 C461.92851378 12.67803461 473.53556251 12.6957162 485.1426159 12.71212531 C496.80407004 12.72868412 508.46551251 12.74891173 520.12695434 12.77266841 C526.44843004 12.78543829 532.76989786 12.79657214 539.09138298 12.80341911 C544.87299658 12.80971645 550.65458301 12.82053756 556.4361817 12.8350333 C558.53315827 12.83947861 560.63013923 12.84223052 562.7271203 12.84316199 C565.56748213 12.84466568 568.4077647 12.85221714 571.24811077 12.8613348 C572.07083968 12.86031213 572.89356858 12.85928946 573.74122867 12.85823581 C577.62616813 12.8770992 581.21840688 13.10119711 585 14 C586.43628457 14.06266512 587.8750555 14.08686347 589.3125 14.0625 C590.529375 14.041875 591.74625 14.02125 593 14 C594.40876405 9.77370786 594 6.89096249 594 2 C563.805 1.505 563.805 1.505 533 1 C533 0.67 533 0.34 533 0 C555.11 0 577.22 0 600 0 C600 12 600 12 596.625 15.5625 C589.30628526 20.39646591 580.5270691 21.4460049 571.97643375 21.38031673 C571.01425974 21.38497665 570.05208573 21.38963657 569.06075493 21.3944377 C565.84765935 21.40635598 562.63498911 21.39700433 559.42189026 21.38768005 C557.09058451 21.39185434 554.75928079 21.39733237 552.42798084 21.40399987 C546.70003802 21.4169459 540.97221638 21.41596391 535.24426588 21.40903748 C528.38004409 21.40151101 521.51587481 21.41140247 514.65166062 21.42174067 C501.2030914 21.44139615 487.75456074 21.44375717 474.30598058 21.43854547 C462.53622095 21.43398666 450.76647659 21.43458953 438.99671745 21.44038582 C437.41737579 21.44114269 435.83803412 21.44189867 434.25869245 21.44265376 C431.87871461 21.44379897 429.49873676 21.44494885 427.11875892 21.44611301 C404.99519247 21.45681631 382.87163109 21.46154495 360.74806309 21.45364285 C359.49739536 21.45319709 359.49739536 21.45319709 358.22146162 21.45274232 C351.45077091 21.45029343 344.68008026 21.44768182 337.90938961 21.44505819 C311.49775578 21.43495512 285.08618552 21.44331298 258.67456055 21.46655273 C228.99366149 21.49262695 199.3128007 21.50547292 169.63188976 21.49836498 C166.46695928 21.49764893 163.3020288 21.49697454 160.13709831 21.49632454 C158.96818827 21.49606983 158.96818827 21.49606983 157.77566387 21.49580997 C146.01478621 21.49350745 134.2539441 21.50148165 122.49307442 21.51461601 C109.1178383 21.52952673 95.74268547 21.53037106 82.36745114 21.5125451 C75.54284474 21.50382385 68.71838335 21.50140429 61.89378548 21.51719666 C55.64585992 21.53100343 49.39823033 21.52633184 43.15032207 21.50695742 C40.89068335 21.50318484 38.63102116 21.50615541 36.37140328 21.51656907 C14.61835308 21.60968761 14.61835308 21.60968761 6 17 C5.35033518 16.68869296 4.70067036 16.37738592 4.03131872 16.05664533 C2.3125 15 2.3125 15 0 12 C0 8.04 0 4.08 0 0 Z " fill="#3D3D3C" transform="translate(70,507)"/>
<path d="M0 0 C0.33 0 0.66 0 1 0 C1.33 59.73 1.66 119.46 2 181 C6.19174654 179.95206337 7.21592961 179.08236365 10 176 C9.7215625 177.2065625 9.7215625 177.2065625 9.4375 178.4375 C9.293125 179.283125 9.14875 180.12875 9 181 C9.33 181.33 9.66 181.66 10 182 C10.33 124.58 10.66 67.16 11 8 C156.86 8 302.72 8 453 8 C453 96.44 453 184.88 453 276 C335.19 276.33 217.38 276.66 96 277 C95.67 277.66 95.34 278.32 95 279 C94.01 279 93.02 279 92 279 C92 280.65 92 282.3 92 284 C61.64 284 31.28 284 0 284 C0 190.28 0 96.56 0 0 Z M12 9 C12 96.78 12 184.56 12 275 C157.2 275 302.4 275 452 275 C452 187.22 452 99.44 452 9 C306.8 9 161.6 9 12 9 Z " fill="#434343" transform="translate(138,222)"/>
<path d="M0 0 C52.4477138 -0.09439563 104.89236197 0.15302342 157.33914959 0.44538212 C168.4624735 0.50731272 179.5858087 0.56709302 190.70914495 0.62675762 C213.47277591 0.74890462 236.23639258 0.87354705 259 1 C259.45375 1.969375 259.9075 2.93875 260.375 3.9375 C261.65786221 7.07079582 261.65786221 7.07079582 264 8 C266.21957267 8.11769727 268.44271134 8.16985327 270.6652832 8.19287109 C271.3500473 8.20104858 272.0348114 8.20922607 272.74032593 8.21765137 C275.0104688 8.24249948 277.28054915 8.25902 279.55078125 8.2734375 C280.32601828 8.27876118 281.1012553 8.28408485 281.89998436 8.28956985 C286.00354397 8.31629929 290.10707318 8.33567454 294.21069336 8.35009766 C298.44789171 8.36674278 302.68431184 8.41151891 306.92121601 8.4624691 C310.18034247 8.49613655 313.43928411 8.50767444 316.69856834 8.51332474 C318.26029595 8.520039 319.82201132 8.53526588 321.38356972 8.55921555 C323.57186784 8.59086174 325.75806604 8.59090629 327.9465332 8.58349609 C329.81279106 8.59562637 329.81279106 8.59562637 331.7167511 8.60800171 C335.85770863 7.84116699 337.34456728 6.17690099 340 3 C339.42655063 5.86724686 339.1385485 6.8614515 337 9 C337.33 9.99 337.66 10.98 338 12 C347.57 12.33 357.14 12.66 367 13 C367 13.33 367 13.66 367 14 C265.03 14 163.06 14 58 14 C58 11.33333333 58 8.66666667 58 6 C58.66 6 59.32 6 60 6 C60.33 4.35 60.66 2.7 61 1 C40.87 1 20.74 1 0 1 C0 0.67 0 0.34 0 0 Z " fill="#7D7D7D" transform="translate(71,506)"/>
<path d="M0 0 C20.46 0 40.92 0 62 0 C61.67 1.65 61.34 3.3 61 5 C60.34 5 59.68 5 59 5 C59 5.99 59 6.98 59 8 C59.66 8.33 60.32 8.66 61 9 C60.34 9.99 59.68 10.98 59 12 C60.54864626 12.00260437 60.54864626 12.00260437 62.12857831 12.00526136 C107.62078871 12.08183097 153.11299684 12.15962319 198.60519409 12.2436676 C199.29372741 12.24493928 199.98226072 12.24621096 200.69165868 12.24752118 C215.6546856 12.27516436 230.61771211 12.30302738 245.58073819 12.33111694 C252.91840872 12.34489035 260.25607934 12.35861517 267.59375 12.37231445 C268.32394352 12.37367854 269.05413705 12.37504262 269.80645764 12.37644804 C293.48189952 12.42065365 317.15734562 12.46164952 340.83279605 12.50098413 C365.15869211 12.54141632 389.48458028 12.58508023 413.81046315 12.63282111 C417.2448871 12.63955985 420.67931113 12.64626157 424.1137352 12.65294075 C424.78969125 12.65425648 425.46564729 12.65557221 426.16208686 12.6569278 C437.05110387 12.67802769 447.94012389 12.69571224 458.82914886 12.71212531 C469.77144711 12.72869136 480.71373451 12.74892197 491.65601964 12.77266841 C497.58674277 12.78543113 503.51745754 12.79656695 509.44819069 12.80341911 C514.87395949 12.80972295 520.29969944 12.8205515 525.72545241 12.8350333 C527.69189563 12.83947344 529.6583435 12.8422294 531.62479152 12.84316199 C534.29150076 12.84466908 536.95812626 12.85223092 539.6248188 12.8613348 C540.77796306 12.8598008 540.77796306 12.8598008 541.95440316 12.85823581 C546.0730893 12.87945524 549.95895198 13.19827945 554 14 C554 14.33 554 14.66 554 15 C511.76 15 469.52 15 426 15 C426 15.66 426 16.32 426 17 C425.35768936 16.83734146 424.71537872 16.67468292 424.05360413 16.50709534 C420.05919141 15.84376506 416.18419259 15.86889585 412.14233398 15.88647461 C411.2604541 15.88632858 410.37857422 15.88618256 409.4699707 15.8860321 C406.56198648 15.88672734 403.65406676 15.89450373 400.74609375 15.90234375 C398.72258031 15.90420994 396.69906642 15.90563289 394.67555237 15.90663147 C389.35225168 15.91044601 384.02897836 15.92026396 378.70568848 15.93133545 C373.2888221 15.9415529 367.87195136 15.94613499 362.45507812 15.95117188 C353.70908295 15.95996669 344.96310123 15.97231063 336.21711731 15.9888916 C331.24691878 15.99829356 326.27691169 16.00289353 321.30673599 15.98438263 C320.36173839 15.98089923 319.41674078 15.97741584 318.44310689 15.97382689 C317.40809316 15.96993594 316.37307944 15.96604499 315.30670166 15.96203613 C314.20480838 15.95795258 313.10291509 15.95386903 311.9676311 15.94966173 C308.26260016 15.93591294 304.55756961 15.92205761 300.85253906 15.90820312 C298.20173647 15.89834465 295.55093386 15.88849206 292.90013123 15.87864685 C287.18654614 15.85741456 281.47296127 15.83612778 275.75937653 15.81480408 C267.49847557 15.7839736 259.23757431 15.75322517 250.97667298 15.72249681 C237.57412942 15.67264068 224.17158612 15.62271812 210.76904297 15.57275391 C197.74918633 15.52421648 184.72932957 15.47571026 171.70947266 15.42724609 C170.90702174 15.4242591 170.10457082 15.4212721 169.27780321 15.41819459 C165.25217058 15.40321001 161.22653795 15.38822604 157.20090532 15.37324238 C123.80060319 15.24892352 90.40030147 15.12449691 57 15 C57 15.66 57 16.32 57 17 C52.8803623 18.29243536 49.33168317 19.26252625 45 19 C45 18.34 45 17.68 45 17 C44.01 17.33 43.02 17.66 42 18 C40.12523032 17.99270379 38.25038116 17.9199322 36.37890625 17.80859375 C35.27869141 17.75123047 34.17847656 17.69386719 33.04492188 17.63476562 C30.72697683 17.50346307 28.40926041 17.36805901 26.09179688 17.22851562 C24.99029297 17.17244141 23.88878906 17.11636719 22.75390625 17.05859375 C21.74658447 16.99986084 20.7392627 16.94112793 19.70141602 16.88061523 C16.86971698 17.00575765 15.43154958 17.62973265 13 19 C9.42464836 19 6.70028395 17.48879411 3.6875 15.6875 C2.470625 14.470625 1.25375 13.25375 0 12 C0 8.04 0 4.08 0 0 Z " fill="#4A4A49" transform="translate(70,507)"/>
<path d="M0 0 C153.12 0 306.24 0 464 0 C464 0.33 464 0.66 464 1 C400.64 1 337.28 1 272 1 C271.67 2.65 271.34 4.3 271 6 C269.86117554 7.78625488 269.86117554 7.78625488 268 9 C264.97744751 9.39440918 264.97744751 9.39440918 261.22119141 9.41992188 C260.53628128 9.42839142 259.85137115 9.43686096 259.14570618 9.44558716 C256.88080285 9.46899202 254.61657764 9.46997843 252.3515625 9.46875 C250.77598803 9.47585045 249.20041616 9.48354927 247.62484741 9.49182129 C244.32111426 9.50527473 241.01762008 9.5068315 237.71386719 9.50097656 C233.48444471 9.49508501 229.25617198 9.52564386 225.02697182 9.56609344 C221.77208298 9.59197381 218.51747067 9.59484751 215.26249313 9.59120178 C213.70358774 9.59289331 212.14466962 9.60253913 210.58586502 9.62034607 C208.40233307 9.6425409 206.22112321 9.63283482 204.03759766 9.61523438 C202.17586411 9.61831604 202.17586411 9.61831604 200.27651978 9.62145996 C196.09509811 8.82836658 194.58194126 7.31999391 192 4 C192 3.01 192 2.02 192 1 C128.64 1 65.28 1 0 1 C0 0.67 0 0.34 0 0 Z " fill="#636363" transform="translate(138,506)"/>
<path d="M0 0 C19.77601288 -0.02339191 39.55202294 -0.04101005 59.3280468 -0.05181217 C68.51102029 -0.05696177 77.69398516 -0.06397896 86.87695312 -0.07543945 C94.88365978 -0.08542716 102.8903602 -0.09186315 110.89707291 -0.09408849 C115.13396421 -0.09538867 119.37083767 -0.09843049 123.60772324 -0.10573006 C127.6016562 -0.11255481 131.59556409 -0.1146039 135.58950233 -0.11310768 C137.04950535 -0.11338112 138.50950927 -0.11534774 139.96950722 -0.11920547 C147.71039782 -0.13864311 155.31692501 0.00230582 163 1 C162.67 1.66 162.34 2.32 162 3 C157.76517481 3.99158695 153.69096711 4.11370266 149.35610962 4.08229065 C148.7139489 4.07906152 148.07178818 4.07583239 147.41016805 4.07250541 C145.27289424 4.06050623 143.13575371 4.04111834 140.99853516 4.02172852 C139.46072676 4.01157766 137.92291528 4.00188487 136.38510132 3.99261475 C132.22025759 3.96621453 128.05548603 3.93341878 123.89069796 3.89946485 C119.53452845 3.8650416 115.17832041 3.83651392 110.82211304 3.80735779 C102.57744209 3.75128188 94.33281941 3.68991269 86.08820093 3.62663645 C76.70011874 3.55484242 67.31199799 3.48895742 57.92386937 3.42356598 C38.61586268 3.28894706 19.30791683 3.14691655 0 3 C0 2.01 0 1.02 0 0 Z " fill="#31312F" transform="translate(497,523)"/>
<path d="M0 0 C0.495 1.485 0.495 1.485 1 3 C0.505 3.4125 0.01 3.825 -0.5 4.25 C-2.43386092 6.12202338 -2.43386092 6.12202338 -2 10 C-20.81 10 -39.62 10 -59 10 C-59 9.67 -59 9.34 -59 9 C-57.02 9 -55.04 9 -53 9 C-53 8.01 -53 7.02 -53 6 C-52.39500671 5.99857498 -51.79001343 5.99714996 -51.16668701 5.99568176 C-44.87221891 5.97600186 -38.5787228 5.9217652 -32.28466797 5.84741211 C-29.93545504 5.8242088 -27.58613774 5.80983096 -25.23681641 5.80444336 C-21.86033915 5.79517124 -18.48550887 5.75421617 -15.109375 5.70703125 C-13.53261993 5.71293022 -13.53261993 5.71293022 -11.92401123 5.71894836 C-6.01317967 5.72391258 -6.01317967 5.72391258 -1.30566406 2.45581055 C-0.87479492 1.64539307 -0.44392578 0.83497559 0 0 Z " fill="#919191" transform="translate(410,509)"/>
<path d="M0 0 C0.66 0 1.32 0 2 0 C2 0.99 2 1.98 2 3 C2.66 3.33 3.32 3.66 4 4 C3.01 5.485 3.01 5.485 2 7 C25.43 7.33 48.86 7.66 73 8 C73 8.33 73 8.66 73 9 C48.66012524 9.70971639 24.3507416 10.16137828 0 10 C0 10.66 0 11.32 0 12 C-1.75 12.6875 -1.75 12.6875 -4 13 C-6.25 11.5625 -6.25 11.5625 -8 10 C-6.76044505 6.28133515 -4.81445146 4.67716114 -2 2 C-1.34 1.34 -0.68 0.68 0 0 Z " fill="#4C4C4B" transform="translate(127,512)"/>
<path d="M0 0 C22.11 0 44.22 0 67 0 C67 3.96 67 7.92 67 12 C66.01 12.33 65.02 12.66 64 13 C63.01 12.34 62.02 11.68 61 11 C61 8.03 61 5.06 61 2 C30.805 1.505 30.805 1.505 0 1 C0 0.67 0 0.34 0 0 Z " fill="#3E3E3E" transform="translate(603,507)"/>
<path d="M0 0 C0.65260803 -0.00095673 1.30521606 -0.00191345 1.9776001 -0.00289917 C3.3629974 -0.00358114 4.74839786 -0.00172567 6.13378906 0.00244141 C8.24291297 0.00775528 10.35182056 0.00251495 12.4609375 -0.00390625 C13.80729213 -0.0032448 15.15364663 -0.00196225 16.5 0 C17.72428711 0.00112793 18.94857422 0.00225586 20.20996094 0.00341797 C23.11127945 0.11698509 25.69882334 0.46096994 28.515625 1.1328125 C28.515625 1.7928125 28.515625 2.4528125 28.515625 3.1328125 C29.175625 3.1328125 29.835625 3.1328125 30.515625 3.1328125 C30.515625 2.4728125 30.515625 1.8128125 30.515625 1.1328125 C31.505625 1.4628125 32.495625 1.7928125 33.515625 2.1328125 C32.855625 3.1228125 32.195625 4.1128125 31.515625 5.1328125 C28.890625 5.3203125 28.890625 5.3203125 26.515625 5.1328125 C26.515625 4.4728125 26.515625 3.8128125 26.515625 3.1328125 C25.525625 3.4628125 24.535625 3.7928125 23.515625 4.1328125 C21.6412082 4.13708265 19.76630929 4.07607892 17.89453125 3.9765625 C16.79431641 3.92371094 15.69410156 3.87085938 14.56054688 3.81640625 C12.24282771 3.69421578 9.92511932 3.57182064 7.60742188 3.44921875 C5.95516602 3.36994141 5.95516602 3.36994141 4.26953125 3.2890625 C3.26220947 3.23556641 2.2548877 3.18207031 1.21704102 3.12695312 C-1.23749189 3.13227701 -3.15361163 3.40850324 -5.484375 4.1328125 C-6.144375 3.1428125 -6.804375 2.1528125 -7.484375 1.1328125 C-5.61792646 -0.73363604 -2.48989855 0.00230242 0 0 Z " fill="#434341" transform="translate(88.484375,520.8671875)"/>
<path d="M0 0 C1.87558594 0.07734375 1.87558594 0.07734375 3.7890625 0.15625 C5.74199219 0.25292969 5.74199219 0.25292969 7.734375 0.3515625 C9.05179688 0.40828125 10.36921875 0.465 11.7265625 0.5234375 C14.97971906 0.66487909 18.23210052 0.81629264 21.484375 0.9765625 C21.484375 1.6365625 21.484375 2.2965625 21.484375 2.9765625 C24.124375 2.9765625 26.764375 2.9765625 29.484375 2.9765625 C29.484375 3.3065625 29.484375 3.6365625 29.484375 3.9765625 C24.10922595 4.02591759 18.73420815 4.06226052 13.35888672 4.08642578 C11.52943627 4.09649734 9.70000197 4.11015526 7.87060547 4.12744141 C5.24442566 4.15163927 2.61845825 4.16303382 -0.0078125 4.171875 C-1.23913406 4.18735886 -1.23913406 4.18735886 -2.49533081 4.20315552 C-4.50351642 4.20355434 -6.51117882 4.0990579 -8.515625 3.9765625 C-9.175625 3.3165625 -9.835625 2.6565625 -10.515625 1.9765625 C-6.94171817 -0.27055059 -4.15985178 -0.18908417 0 0 Z " fill="#252523" transform="translate(93.515625,523.0234375)"/>
<path d="M0 0 C2.97 0 5.94 0 9 0 C8 4 8 4 7 6 C5.35 5.67 3.7 5.34 2 5 C1.67 5.99 1.34 6.98 1 8 C0.34 8 -0.32 8 -1 8 C-1 9.32 -1 10.64 -1 12 C-2.32 11.67 -3.64 11.34 -5 11 C-5.75 9.25 -5.75 9.25 -6 7 C-4.1875 4.75 -4.1875 4.75 -2 3 C-1.34 3 -0.68 3 0 3 C0 2.01 0 1.02 0 0 Z " fill="#0E0E0E" transform="translate(237,215)"/>
<path d="M0 0 C2.5 1.375 2.5 1.375 5 3 C5 3.66 5 4.32 5 5 C4.01 5 3.02 5 2 5 C2 5.99 2 6.98 2 8 C0.68 7.67 -0.64 7.34 -2 7 C-2 7.66 -2 8.32 -2 9 C-2.66 9 -3.32 9 -4 9 C-4.66 10.65 -5.32 12.3 -6 14 C-8.31 14 -10.62 14 -13 14 C-11.9024777 11.00675737 -11.32317108 10.15389099 -8.375 8.75 C-7.59125 8.5025 -6.8075 8.255 -6 8 C-6 7.01 -6 6.02 -6 5 C-4.125 3.9375 -4.125 3.9375 -2 3 C-1.34 3.33 -0.68 3.66 0 4 C0 2.68 0 1.36 0 0 Z " fill="#131313" transform="translate(517,216)"/>
<path d="M0 0 C0.66 0.33 1.32 0.66 2 1 C2 1.66 2 2.32 2 3 C0.68 3.33 -0.64 3.66 -2 4 C-2 5.32 -2 6.64 -2 8 C-2.639375 8.103125 -3.27875 8.20625 -3.9375 8.3125 C-4.9584375 8.6528125 -4.9584375 8.6528125 -6 9 C-6.33 9.99 -6.66 10.98 -7 12 C-7.66 11.67 -8.32 11.34 -9 11 C-9 10.34 -9 9.68 -9 9 C-9.99 8.67 -10.98 8.34 -12 8 C-9.43144233 2.00669876 -6.71899528 -0.73032557 0 0 Z " fill="#111111" transform="translate(337,215)"/>
<path d="M0 0 C0.66 0 1.32 0 2 0 C2 0.99 2 1.98 2 3 C2.66 3.33 3.32 3.66 4 4 C2.29620573 7.8084813 1.41878493 8.83836371 -2.5625 10.375 C-6 11 -6 11 -8 10 C-6.76044505 6.28133515 -4.81445146 4.67716114 -2 2 C-1.34 1.34 -0.68 0.68 0 0 Z " fill="#656565" transform="translate(127,512)"/>
<path d="M0 0 C2.97 0 5.94 0 9 0 C9 0.66 9 1.32 9 2 C7.68 2.33 6.36 2.66 5 3 C5.33 3.99 5.66 4.98 6 6 C1.545 6.495 1.545 6.495 -3 7 C-3.33 6.01 -3.66 5.02 -4 4 C-3.67 3.34 -3.34 2.68 -3 2 C-2.01 2 -1.02 2 0 2 C0 1.34 0 0.68 0 0 Z " fill="#2C2C2C" transform="translate(233,499)"/>
<path d="M0 0 C1.65 0 3.3 0 5 0 C5.33 0.99 5.66 1.98 6 3 C5.67 3.33 5.34 3.66 5 4 C4.60851239 5.51165654 4.26027543 7.03469632 3.9375 8.5625 C3.76089844 9.38878906 3.58429688 10.21507812 3.40234375 11.06640625 C3.26957031 11.70449219 3.13679688 12.34257813 3 13 C2.01 12.67 1.02 12.34 0 12 C0 8.04 0 4.08 0 0 Z " fill="#2A2A2A" transform="translate(70,507)"/>
<path d="M0 0 C-0.61277612 2.96175123 -1.25372522 4.38058783 -3 7 C-6.625 7.1875 -6.625 7.1875 -10 7 C-10 6.34 -10 5.68 -10 5 C-9.34 5 -8.68 5 -8 5 C-8 4.01 -8 3.02 -8 2 C-4.77208445 -0.1519437 -3.71599191 -0.20086443 0 0 Z " fill="#272727" transform="translate(518,499)"/>
<path d="M0 0 C0 0.66 0 1.32 0 2 C0.66 2 1.32 2 2 2 C2 1.34 2 0.68 2 0 C2.99 0.33 3.98 0.66 5 1 C4.01 2.485 4.01 2.485 3 4 C0.375 4.1875 0.375 4.1875 -2 4 C-2 3.34 -2 2.68 -2 2 C-2.99 2.33 -3.98 2.66 -5 3 C-7.74607776 2.91232913 -10.45091508 2.77043265 -13.1875 2.5625 C-13.93708984 2.51029297 -14.68667969 2.45808594 -15.45898438 2.40429688 C-17.30637082 2.27486216 -19.15324371 2.13813482 -21 2 C-21 1.67 -21 1.34 -21 1 C-18.43761495 0.83138242 -15.87511576 0.66504227 -13.3125 0.5 C-12.59126953 0.45230469 -11.87003906 0.40460937 -11.12695312 0.35546875 C-7.41171286 0.11796481 -3.72305126 -0.05874637 0 0 Z " fill="#3D3D3B" transform="translate(117,522)"/>
<path d="M0 0 C0 0.99 0 1.98 0 3 C-1.45635371 3.22174933 -2.91522956 3.42698698 -4.375 3.625 C-5.18710938 3.74101563 -5.99921875 3.85703125 -6.8359375 3.9765625 C-7.55007812 3.98429688 -8.26421875 3.99203125 -9 4 C-9.66 3.34 -10.32 2.68 -11 2 C-7.36576791 -0.32590854 -4.22911669 -0.16265833 0 0 Z " fill="#31312F" transform="translate(94,523)"/>
<path d="M0 0 C0 0.66 0 1.32 0 2 C0.99 2.33 1.98 2.66 3 3 C3 3.66 3 4.32 3 5 C0.03 5 -2.94 5 -6 5 C-6 4.34 -6 3.68 -6 3 C-2.53846154 0 -2.53846154 0 0 0 Z " fill="#131313" transform="translate(230,225)"/>
<path d="M0 0 C0.99 0.33 1.98 0.66 3 1 C1.515 2.485 1.515 2.485 0 4 C0.66 4.33 1.32 4.66 2 5 C1.67 6.32 1.34 7.64 1 9 C-0.32 8.67 -1.64 8.34 -3 8 C-3.75 6.25 -3.75 6.25 -4 4 C-2.0625 1.75 -2.0625 1.75 0 0 Z " fill="#161616" transform="translate(235,218)"/>
<path d="M0 0 C3.63 0 7.26 0 11 0 C10.67 0.66 10.34 1.32 10 2 C8.02 2 6.04 2 4 2 C4 2.66 4 3.32 4 4 C2.68 3.67 1.36 3.34 0 3 C0 2.01 0 1.02 0 0 Z " fill="#545452" transform="translate(492,520)"/>
<path d="M0 0 C5.28 0 10.56 0 16 0 C16 0.33 16 0.66 16 1 C6.58997722 3.29612756 6.58997722 3.29612756 2 3 C2 2.34 2 1.68 2 1 C1.34 0.67 0.68 0.34 0 0 Z " fill="#6E6E6E" transform="translate(132,507)"/>
<path d="M0 0 C2.375 0.3125 2.375 0.3125 5 1 C5.66 1.99 6.32 2.98 7 4 C4.69 4.33 2.38 4.66 0 5 C-0.33 4.01 -0.66 3.02 -1 2 C-0.67 1.34 -0.34 0.68 0 0 Z " fill="#252525" transform="translate(230,501)"/>
<path d="M0 0 C1.65 0.33 3.3 0.66 5 1 C5 2.32 5 3.64 5 5 C3.02 5 1.04 5 -1 5 C-0.67 3.35 -0.34 1.7 0 0 Z " fill="#191919" transform="translate(368,220)"/>
<path d="M0 0 C4.95 0 9.9 0 15 0 C15 0.33 15 0.66 15 1 C14.26394531 1.04898437 13.52789063 1.09796875 12.76953125 1.1484375 C11.30580078 1.26058594 11.30580078 1.26058594 9.8125 1.375 C8.84957031 1.44460938 7.88664063 1.51421875 6.89453125 1.5859375 C3.98491062 2.00215853 1.67109226 2.79874096 -1 4 C-0.67 2.68 -0.34 1.36 0 0 Z " fill="#838383" transform="translate(511,507)"/>
<path d="M0 0 C0.33 0 0.66 0 1 0 C1 3.63 1 7.26 1 11 C0.01 11.33 -0.98 11.66 -2 12 C-2.625 9.625 -2.625 9.625 -3 7 C-2.34 6.34 -1.68 5.68 -1 5 C-0.35232207 2.42938689 -0.35232207 2.42938689 0 0 Z " fill="#252525" transform="translate(669,508)"/>
<path d="M0 0 C1.32 1.32 2.64 2.64 4 4 C2.02253397 4.73080266 0.01927511 5.39421747 -2 6 C-2.66 5.67 -3.32 5.34 -4 5 C-3 2 -3 2 0 0 Z " fill="#5A5A59" transform="translate(123,517)"/>
<path d="M0 0 C0.66 0 1.32 0 2 0 C2 0.66 2 1.32 2 2 C2.66 2.33 3.32 2.66 4 3 C4 4.32 4 5.64 4 7 C2.0625 6.25 2.0625 6.25 0 5 C-0.8125 2.9375 -0.8125 2.9375 -1 1 C-0.67 0.67 -0.34 0.34 0 0 Z " fill="#222222" transform="translate(141,405)"/>
<path d="M0 0 C1.01268859 3.79758221 1.01268859 6.20241779 0 10 C-1.5625 8.75 -1.5625 8.75 -3 7 C-2.71483972 3.9582904 -1.73969465 2.60954198 0 0 Z " fill="#212121" transform="translate(147,398)"/>
<path d="M0 0 C0.66 0 1.32 0 2 0 C2 2.31 2 4.62 2 7 C0.68 6.67 -0.64 6.34 -2 6 C-2 4.68 -2 3.36 -2 2 C-1.34 2 -0.68 2 0 2 C0 1.34 0 0.68 0 0 Z " fill="#141414" transform="translate(147,305)"/>
<path d="M0 0 C1.98 0 3.96 0 6 0 C5.67 0.99 5.34 1.98 5 3 C2.69 3.33 0.38 3.66 -2 4 C-1.34 2.68 -0.68 1.36 0 0 Z " fill="#535351" transform="translate(399,520)"/>
<path d="M0 0 C1.62463842 -0.05395478 3.24978541 -0.09277195 4.875 -0.125 C5.77992188 -0.14820313 6.68484375 -0.17140625 7.6171875 -0.1953125 C10 0 10 0 12 2 C9.36 2.33 6.72 2.66 4 3 C4 2.34 4 1.68 4 1 C2.68 0.67 1.36 0.34 0 0 Z " fill="#1C1C1C" transform="translate(514,498)"/>
<path d="M0 0 C0.99 0 1.98 0 3 0 C2.979375 0.78375 2.95875 1.5675 2.9375 2.375 C2.81315937 4.98114961 2.81315937 4.98114961 4 7 C2.68 6.67 1.36 6.34 0 6 C0 4.02 0 2.04 0 0 Z " fill="#636363" transform="translate(332,507)"/>
<path d="M0 0 C1.9375 0.75 1.9375 0.75 4 2 C4.75 4.125 4.75 4.125 5 6 C3.68 6 2.36 6 1 6 C0.67 4.02 0.34 2.04 0 0 Z " fill="#1B1B1B" transform="translate(591,328)"/>
<path d="M0 0 C0 1.98 0 3.96 0 6 C-1.32 5.67 -2.64 5.34 -4 5 C-3.625 3.0625 -3.625 3.0625 -3 1 C-1 0 -1 0 0 0 Z " fill="#171717" transform="translate(601,319)"/>
<path d="M0 0 C0.66 0.33 1.32 0.66 2 1 C2 1.66 2 2.32 2 3 C3.32 3.66 4.64 4.32 6 5 C5.01 5.66 4.02 6.32 3 7 C1.5 5.625 1.5 5.625 0 4 C0 3.34 0 2.68 0 2 C-0.66 1.67 -1.32 1.34 -2 1 C-1.34 0.67 -0.68 0.34 0 0 Z " fill="#0A0A0A" transform="translate(230,223)"/>
<path d="M0 0 C0.99 0.33 1.98 0.66 3 1 C1.68 2.32 0.36 3.64 -1 5 C-2.32 4.34 -3.64 3.68 -5 3 C-4.360625 2.690625 -3.72125 2.38125 -3.0625 2.0625 C-1.06389179 1.1654837 -1.06389179 1.1654837 0 0 Z " fill="#4C4C4C" transform="translate(665,519)"/>
</svg>
