<?xml version="1.0" encoding="UTF-8"?>
<svg version="1.1" xmlns="http://www.w3.org/2000/svg" width="360" height="360">
<path d="M0 0 C37.02059051 -0.09148902 74.04116404 -0.16200486 111.06184467 -0.20426132 C115.42916942 -0.20926434 119.79649394 -0.21444161 124.16381836 -0.21972656 C125.46804131 -0.22130043 125.46804131 -0.22130043 126.7986122 -0.22290608 C140.89041447 -0.24032713 154.9821517 -0.27187413 169.07391534 -0.30861118 C183.52565436 -0.3459734 197.97735923 -0.36822584 212.42914456 -0.37635398 C221.35185114 -0.38185158 230.27437388 -0.39923573 239.19702389 -0.43166587 C245.30967154 -0.45275556 251.42222369 -0.45921268 257.53490511 -0.45400551 C261.06544256 -0.45143502 264.59565802 -0.4554667 268.12613869 -0.4768219 C271.94813033 -0.49977243 275.76969783 -0.49198698 279.5917511 -0.48101807 C281.27704224 -0.49849512 281.27704224 -0.49849512 282.99637967 -0.51632524 C284.01602093 -0.50836104 285.03566219 -0.50039685 286.08620167 -0.49219131 C286.96905144 -0.4937102 287.8519012 -0.49522908 288.76150399 -0.49679399 C291 0 291 0 292.78404093 1.81063938 C294.58795621 5.05862788 294.40330129 8.22826543 294.36076355 11.8460083 C294.36332682 12.64163516 294.3658901 13.43726202 294.36853105 14.25699878 C294.37347656 16.92576977 294.35696354 19.59397635 294.34057617 22.26269531 C294.33973006 24.17459093 294.34020472 26.08648752 294.34190369 27.99838257 C294.3427657 33.19228005 294.32510648 38.3859704 294.30418181 43.57981968 C294.28544944 49.00638852 294.28366729 54.43296192 294.28010559 59.85955811 C294.27077501 70.13718449 294.2461475 80.41471533 294.21605712 90.6922996 C294.18254464 102.39227723 294.16603503 114.09225938 294.15097082 125.79227304 C294.11959885 149.86157016 294.06621554 173.9307757 294 198 C302.58 198 311.16 198 320 198 C320 200.97 320 203.94 320 207 C316.46274294 209.35817137 314.57800204 209.34731362 310.375 209.5625 C306.33145928 209.79474439 302.32870912 210.0376959 298.3125 210.5625 C293.21575607 211.17795587 288.12567045 211.08622623 283 211 C283 210.34 283 209.68 283 209 C282.13809901 209.02996567 281.27619802 209.05993134 280.38817883 209.09080505 C251.453526 210.05874394 222.53898445 210.11983027 193.59055924 210.06846237 C187.08720607 210.05831447 180.58384951 210.05494073 174.08049011 210.05102539 C163.20966171 210.04391008 152.33884029 210.03369513 141.46801758 210.02050781 C140.78450848 210.01968 140.10099938 210.01885219 139.39677789 210.01799929 C135.2333928 210.01293677 131.07000783 210.00778359 126.90662289 210.00260353 C120.59408014 209.99475542 114.28153727 209.98702056 107.96899414 209.97949219 C107.27574289 209.97866406 106.58249163 209.97783593 105.86823276 209.97698271 C94.3216804 209.96331308 82.77512851 209.95359225 71.22857016 209.94658184 C63.50875008 209.94160358 55.78895625 209.93175504 48.06914675 209.91815186 C43.2977367 209.91071873 38.5263303 209.90738258 33.75491524 209.9051857 C31.53887465 209.90330759 29.32283478 209.89969463 27.10680008 209.89425278 C24.09269276 209.88708013 21.07864377 209.88599702 18.06452942 209.88647461 C17.1809247 209.88287965 16.29731997 209.87928469 15.38693935 209.87558079 C12.00691935 209.88135411 9.22925572 209.92358143 6 211 C1.90111656 211.09774816 -2.18951254 210.94752376 -6.28686523 210.81298828 C-8.29437059 210.75056374 -10.30249382 210.70916964 -12.31054688 210.66796875 C-13.58607422 210.62800781 -14.86160156 210.58804688 -16.17578125 210.546875 C-17.34020752 210.51432617 -18.50463379 210.48177734 -19.7043457 210.44824219 C-23.33022008 209.95508674 -25.83772959 208.80118315 -29 207 C-28.67 204.03 -28.34 201.06 -28 198 C-19.42 198 -10.84 198 -2 198 C-2 133.32 -2 68.64 -2 2 C-1.34 2 -0.68 2 0 2 C0 1.34 0 0.68 0 0 Z M4 6 C3.90236925 8.35286653 3.87002341 10.67635287 3.87974548 13.02967834 C3.87888947 13.77193665 3.87803345 14.51419495 3.87715149 15.27894592 C3.87548635 17.79284 3.88103597 20.30666857 3.88647461 22.82055664 C3.8867807 24.64291857 3.88664787 26.46528061 3.88610935 28.28764248 C3.88588279 33.18549265 3.89169536 38.08331859 3.89871979 42.98116302 C3.90439794 47.57040995 3.90468199 52.15965086 3.90539551 56.74890137 C3.91065117 70.18677081 3.92461221 83.62463571 3.9375 97.0625 C3.958125 127.071875 3.97875 157.08125 4 188 C97.72 188 191.44 188 288 188 C288 127.61 288 67.22 288 5 C267.766875 4.95875 247.53375 4.9175 226.6875 4.875 C220.29334717 4.85679199 213.89919434 4.83858398 207.3112793 4.81982422 C201.59122575 4.81313631 201.59122575 4.81313631 195.87117004 4.80911255 C192.64700585 4.80522713 189.42294929 4.79393701 186.19881409 4.78036678 C183.00974267 4.76971209 179.82067793 4.77231883 176.6315918 4.77294922 C175.49007754 4.765753 174.34856329 4.75855679 173.1724577 4.7511425 C171.61709915 4.75527499 171.61709915 4.75527499 170.03031921 4.75949097 C168.67390084 4.75672559 168.67390084 4.75672559 167.29008007 4.75390434 C164.72192015 4.85126979 164.72192015 4.85126979 162 7 C159.31405085 7.17162025 156.73455099 7.23224552 154.05078125 7.1953125 C153.27816452 7.1924826 152.50554779 7.18965271 151.70951843 7.18673706 C149.24368757 7.17554878 146.77822094 7.15044703 144.3125 7.125 C142.63997921 7.11496843 140.96745272 7.10584289 139.29492188 7.09765625 C135.19647441 7.07561392 131.09829894 7.04109363 127 7 C127 6.34 127 5.68 127 5 C111.11044873 4.97667076 95.22090206 4.9590207 79.33133793 4.94818783 C71.95404044 4.94302492 64.57675357 4.93598233 57.19946289 4.92456055 C50.7716782 4.91461354 44.3439012 4.90814653 37.91610903 4.90591151 C34.51060722 4.90460443 31.10512742 4.90151875 27.69963264 4.89426994 C23.90398959 4.88706394 20.10839288 4.88600887 16.31274414 4.88647461 C15.17554932 4.88287933 14.03835449 4.87928406 12.86669922 4.87557983 C11.32484703 4.87764183 11.32484703 4.87764183 9.75184631 4.87974548 C8.85309815 4.87882369 7.95434999 4.8779019 7.02836704 4.87695217 C5.00421504 4.77478749 5.00421504 4.77478749 4 6 Z " fill="#4B4B4A" transform="translate(34,75)"/>
<path d="M0 0 C37.02059051 -0.09148902 74.04116404 -0.16200486 111.06184467 -0.20426132 C115.42916942 -0.20926434 119.79649394 -0.21444161 124.16381836 -0.21972656 C125.46804131 -0.22130043 125.46804131 -0.22130043 126.7986122 -0.22290608 C140.89041447 -0.24032713 154.9821517 -0.27187413 169.07391534 -0.30861118 C183.52565436 -0.3459734 197.97735923 -0.36822584 212.42914456 -0.37635398 C221.35185114 -0.38185158 230.27437388 -0.39923573 239.19702389 -0.43166587 C245.30967154 -0.45275556 251.42222369 -0.45921268 257.53490511 -0.45400551 C261.06544256 -0.45143502 264.59565802 -0.4554667 268.12613869 -0.4768219 C271.94813033 -0.49977243 275.76969783 -0.49198698 279.5917511 -0.48101807 C281.27704224 -0.49849512 281.27704224 -0.49849512 282.99637967 -0.51632524 C284.01602093 -0.50836104 285.03566219 -0.50039685 286.08620167 -0.49219131 C286.96905144 -0.4937102 287.8519012 -0.49522908 288.76150399 -0.49679399 C291 0 291 0 292.78404093 1.81063938 C294.58795621 5.05862788 294.40330129 8.22826543 294.36076355 11.8460083 C294.36332682 12.64163516 294.3658901 13.43726202 294.36853105 14.25699878 C294.37347656 16.92576977 294.35696354 19.59397635 294.34057617 22.26269531 C294.33973006 24.17459093 294.34020472 26.08648752 294.34190369 27.99838257 C294.3427657 33.19228005 294.32510648 38.3859704 294.30418181 43.57981968 C294.28544944 49.00638852 294.28366729 54.43296192 294.28010559 59.85955811 C294.27077501 70.13718449 294.2461475 80.41471533 294.21605712 90.6922996 C294.18254464 102.39227723 294.16603503 114.09225938 294.15097082 125.79227304 C294.11959886 149.86156837 294.06681865 173.93077883 294 198 C293.34 198 292.68 198 292 198 C292 196.02 292 194.04 292 192 C195.64 192 99.28 192 0 192 C0 193.98 0 195.96 0 198 C-0.66 198 -1.32 198 -2 198 C-2 133.32 -2 68.64 -2 2 C-1.34 2 -0.68 2 0 2 C0 1.34 0 0.68 0 0 Z M4 6 C3.90236925 8.35286653 3.87002341 10.67635287 3.87974548 13.02967834 C3.87888947 13.77193665 3.87803345 14.51419495 3.87715149 15.27894592 C3.87548635 17.79284 3.88103597 20.30666857 3.88647461 22.82055664 C3.8867807 24.64291857 3.88664787 26.46528061 3.88610935 28.28764248 C3.88588279 33.18549265 3.89169536 38.08331859 3.89871979 42.98116302 C3.90439794 47.57040995 3.90468199 52.15965086 3.90539551 56.74890137 C3.91065117 70.18677081 3.92461221 83.62463571 3.9375 97.0625 C3.958125 127.071875 3.97875 157.08125 4 188 C97.72 188 191.44 188 288 188 C288 127.61 288 67.22 288 5 C267.766875 4.95875 247.53375 4.9175 226.6875 4.875 C220.29334717 4.85679199 213.89919434 4.83858398 207.3112793 4.81982422 C201.59122575 4.81313631 201.59122575 4.81313631 195.87117004 4.80911255 C192.64700585 4.80522713 189.42294929 4.79393701 186.19881409 4.78036678 C183.00974267 4.76971209 179.82067793 4.77231883 176.6315918 4.77294922 C175.49007754 4.765753 174.34856329 4.75855679 173.1724577 4.7511425 C171.61709915 4.75527499 171.61709915 4.75527499 170.03031921 4.75949097 C168.67390084 4.75672559 168.67390084 4.75672559 167.29008007 4.75390434 C164.72192015 4.85126979 164.72192015 4.85126979 162 7 C159.31405085 7.17162025 156.73455099 7.23224552 154.05078125 7.1953125 C153.27816452 7.1924826 152.50554779 7.18965271 151.70951843 7.18673706 C149.24368757 7.17554878 146.77822094 7.15044703 144.3125 7.125 C142.63997921 7.11496843 140.96745272 7.10584289 139.29492188 7.09765625 C135.19647441 7.07561392 131.09829894 7.04109363 127 7 C127 6.34 127 5.68 127 5 C111.11044873 4.97667076 95.22090206 4.9590207 79.33133793 4.94818783 C71.95404044 4.94302492 64.57675357 4.93598233 57.19946289 4.92456055 C50.7716782 4.91461354 44.3439012 4.90814653 37.91610903 4.90591151 C34.51060722 4.90460443 31.10512742 4.90151875 27.69963264 4.89426994 C23.90398959 4.88706394 20.10839288 4.88600887 16.31274414 4.88647461 C15.17554932 4.88287933 14.03835449 4.87928406 12.86669922 4.87557983 C11.32484703 4.87764183 11.32484703 4.87764183 9.75184631 4.87974548 C8.85309815 4.87882369 7.95434999 4.8779019 7.02836704 4.87695217 C5.00421504 4.77478749 5.00421504 4.77478749 4 6 Z " fill="#3D3D3C" transform="translate(34,75)"/>
<path d="M0 0 C1.10838274 0.00042423 2.21676547 0.00084846 3.35873556 0.00128555 C32.21833173 0.01251593 61.07791697 0.03287188 89.9375 0.0625 C89.9375 2.7025 89.9375 5.3425 89.9375 8.0625 C75.17274829 9.2259846 60.44568786 9.1674401 45.64331055 9.10009766 C42.91826655 9.09099241 40.19321867 9.08346803 37.46817017 9.07585144 C30.87641585 9.05645055 24.28469505 9.03140092 17.69296857 9.0042484 C12.33729327 8.98229808 6.98161391 8.9624748 1.62592506 8.94413376 C0.86060822 8.94151163 0.09529138 8.9388895 -0.69321689 8.93618792 C-2.24829686 8.93086989 -3.80337686 8.92555711 -5.35845687 8.92024951 C-19.88912717 8.87041752 -34.41976709 8.81417245 -48.95040461 8.75564377 C-61.41605924 8.70557747 -73.88172373 8.66088808 -86.34741211 8.62011719 C-100.85009461 8.5726806 -115.35276014 8.5220732 -129.85541314 8.46629179 C-131.40045208 8.46035687 -132.94549104 8.45442551 -134.49053001 8.44849777 C-135.25061092 8.44557939 -136.01069182 8.442661 -136.79380548 8.43965418 C-142.14917127 8.4193067 -147.50454196 8.40121797 -152.85991859 8.38399124 C-159.37638118 8.36296277 -165.89281917 8.33841882 -172.40925101 8.30934478 C-175.73332915 8.29460077 -179.05737931 8.28196953 -182.38147926 8.27253914 C-185.98098447 8.26205464 -189.58041207 8.24554334 -193.17988586 8.22744751 C-194.23443114 8.22578728 -195.28897642 8.22412706 -196.37547761 8.22241652 C-197.3378585 8.21632538 -198.30023939 8.21023423 -199.29178333 8.20395851 C-200.53787254 8.19915834 -200.53787254 8.19915834 -201.80913526 8.19426119 C-204.01580182 8.06523059 -205.94333972 7.67410291 -208.0625 7.0625 C-208.0625 5.0825 -208.0625 3.1025 -208.0625 1.0625 C-194.58360469 0.87209483 -181.10442613 0.71032697 -167.625 0.5625 C-166.00215025 0.54468412 -166.00215025 0.54468412 -164.34651566 0.52650833 C-109.56556962 -0.06478888 -54.78344791 -0.02158128 0 0 Z " fill="#D3D3D3" transform="translate(262.0625,272.9375)"/>
<path d="M0 0 C50.16 0 100.32 0 152 0 C152 0.33 152 0.66 152 1 C101.51 1.495 101.51 1.495 50 2 C50 2.99 50 3.98 50 5 C49.67 5.33 49.34 5.66 49 6 C51.95571605 6.98523868 53.87851198 7.12948045 56.96065044 7.1386652 C57.99074189 7.14413964 59.02083333 7.14961409 60.08213967 7.15525442 C61.21733995 7.15623253 62.35254022 7.15721064 63.5221405 7.15821838 C65.32683201 7.16562535 65.32683201 7.16562535 67.16798192 7.17318195 C70.51327564 7.18591181 73.85852755 7.19418585 77.20383584 7.20060861 C80.80914593 7.20860579 84.41443479 7.22230592 88.01972961 7.23532104 C94.26807682 7.25709347 100.51642616 7.27523516 106.76479149 7.29092598 C115.79893038 7.31361763 124.83304579 7.34176143 133.86716477 7.37124526 C148.52365612 7.41892982 163.18015707 7.46219166 177.83666992 7.50268555 C192.07593533 7.54203608 206.31519221 7.58346124 220.55444336 7.62768555 C221.43183189 7.63040982 222.30922042 7.63313409 223.21319648 7.63594092 C227.61470163 7.64962032 232.01620665 7.66334061 236.41771162 7.67708123 C272.94512336 7.79105958 309.47255331 7.89786593 346 8 C346 5.36 346 2.72 346 0 C346.66 0 347.32 0 348 0 C348.08096803 1.45742463 348.13917774 2.91612807 348.1875 4.375 C348.22230469 5.18710937 348.25710938 5.99921875 348.29296875 6.8359375 C348.19628906 7.55007813 348.09960938 8.26421875 348 9 C344.46274294 11.35817137 342.57800204 11.34731362 338.375 11.5625 C334.33145928 11.79474439 330.32870912 12.0376959 326.3125 12.5625 C321.21575607 13.17795587 316.12567045 13.08622623 311 13 C311 12.34 311 11.68 311 11 C309.70714852 11.0449485 309.70714852 11.0449485 308.38817883 11.09080505 C279.453526 12.05874394 250.53898445 12.11983027 221.59055924 12.06846237 C215.08720607 12.05831447 208.58384951 12.05494073 202.08049011 12.05102539 C191.20966171 12.04391008 180.33884029 12.03369513 169.46801758 12.02050781 C168.78450848 12.01968 168.10099938 12.01885219 167.39677789 12.01799929 C163.2333928 12.01293677 159.07000783 12.00778359 154.90662289 12.00260353 C148.59408014 11.99475542 142.28153727 11.98702056 135.96899414 11.97949219 C135.27574289 11.97866406 134.58249163 11.97783593 133.86823276 11.97698271 C122.3216804 11.96331308 110.77512851 11.95359225 99.22857016 11.94658184 C91.50875008 11.94160358 83.78895625 11.93175504 76.06914675 11.91815186 C71.2977367 11.91071873 66.5263303 11.90738258 61.75491524 11.9051857 C59.53887465 11.90330759 57.32283478 11.89969463 55.10680008 11.89425278 C52.09269276 11.88708013 49.07864377 11.88599702 46.06452942 11.88647461 C45.1809247 11.88287965 44.29731997 11.87928469 43.38693935 11.87558079 C40.00691935 11.88135411 37.22925572 11.92358143 34 13 C29.90111656 13.09774816 25.81048746 12.94752376 21.71313477 12.81298828 C19.70562941 12.75056374 17.69750618 12.70916964 15.68945312 12.66796875 C14.41392578 12.62800781 13.13839844 12.58804687 11.82421875 12.546875 C10.65979248 12.51432617 9.49536621 12.48177734 8.2956543 12.44824219 C4.66977992 11.95508674 2.16227041 10.80118315 -1 9 C-0.67 6.03 -0.34 3.06 0 0 Z " fill="#727171" transform="translate(6,273)"/>
<path d="M0 0 C0.66 0 1.32 0 2 0 C2.08096803 1.45742463 2.13917774 2.91612807 2.1875 4.375 C2.22230469 5.18710937 2.25710938 5.99921875 2.29296875 6.8359375 C2.19628906 7.55007813 2.09960938 8.26421875 2 9 C-1.53725706 11.35817137 -3.42199796 11.34731362 -7.625 11.5625 C-11.66854072 11.79474439 -15.67129088 12.0376959 -19.6875 12.5625 C-24.78424393 13.17795587 -29.87432955 13.08622623 -35 13 C-35 12.34 -35 11.68 -35 11 C-35.86249422 11.02978156 -36.72498844 11.05956312 -37.61361885 11.09024715 C-66.51274389 12.05122603 -95.39342965 12.13467036 -124.30630636 12.10139394 C-130.79104597 12.09503375 -137.27578632 12.0945468 -143.76052856 12.09336853 C-154.5968664 12.09063878 -165.43319688 12.08444352 -176.26953125 12.07543945 C-187.40787725 12.06619433 -198.54622123 12.05914872 -209.68457031 12.05493164 C-210.72251101 12.05453756 -210.72251101 12.05453756 -211.78142022 12.05413551 C-215.25439284 12.05283003 -218.72736548 12.05156643 -222.20033813 12.05032361 C-250.80023022 12.04003525 -279.40011493 12.02241578 -308 12 C-308 11.34 -308 10.68 -308 10 C-307.43438827 9.99576806 -306.86877653 9.99153612 -306.28602505 9.98717594 C-292.50559671 9.88374489 -278.72521872 9.77502902 -264.94487667 9.66066074 C-258.28073111 9.60551153 -251.61658329 9.55210438 -244.95239258 9.50268555 C-238.52033802 9.45492393 -232.08833558 9.40257697 -225.65634346 9.34705925 C-223.2031948 9.32668911 -220.75003188 9.30796736 -218.29685783 9.29092598 C-214.85922981 9.26676357 -211.42169932 9.23672536 -207.98413086 9.20532227 C-206.97136581 9.1995668 -205.95860077 9.19381134 -204.91514587 9.18788147 C-203.49975525 9.17319824 -203.49975525 9.17319824 -202.05577087 9.15821838 C-200.83762145 9.14853956 -200.83762145 9.14853956 -199.59486294 9.1386652 C-196.87058838 9.03514159 -196.87058838 9.03514159 -193.68744659 8.49762726 C-189.75047648 7.96632637 -185.90753217 7.8636902 -181.94508362 7.87974548 C-181.1632277 7.87889106 -180.38137177 7.87803663 -179.57582325 7.87715632 C-176.97183041 7.87551715 -174.36790286 7.88099716 -171.76391602 7.88647461 C-169.89098614 7.88675684 -168.01805615 7.88659804 -166.14512634 7.8860321 C-161.07131278 7.88574555 -155.99752293 7.8916194 -150.92371488 7.89860606 C-145.6172709 7.90486317 -140.31082637 7.90544527 -135.00437927 7.90663147 C-124.96063883 7.90973783 -114.9169093 7.91794186 -104.87317365 7.92798096 C-93.43671286 7.93916367 -82.00025153 7.94465799 -70.56378663 7.94967639 C-47.04251838 7.96012504 -23.5212598 7.97771104 0 8 C0 5.36 0 2.72 0 0 Z " fill="#666565" transform="translate(352,273)"/>
<path d="M0 0 C33.33 0 66.66 0 101 0 C101.99 1.98 101.99 1.98 103 4 C99.60272839 7.39727161 95.40736461 7.12502472 90.79405212 7.13371277 C89.25262291 7.14011024 89.25262291 7.14011024 87.68005371 7.14663696 C86.56352417 7.14618378 85.44699463 7.14573059 84.29663086 7.14526367 C82.52027 7.15030159 82.52027 7.15030159 80.70802307 7.15544128 C77.46847444 7.16330268 74.22896432 7.16661814 70.9894073 7.16725707 C68.96465643 7.16796882 66.93991225 7.17010543 64.91516304 7.17275429 C57.84960632 7.18199635 50.78406843 7.18609034 43.71850586 7.18530273 C37.13432742 7.18470127 30.55023072 7.19526934 23.96607298 7.2110464 C18.30905234 7.22411847 12.65205846 7.22948682 6.99502283 7.22884732 C3.61798478 7.22859237 0.2410195 7.23144266 -3.13600349 7.24202538 C-6.8994139 7.25178947 -10.66261179 7.24896164 -14.42602539 7.24291992 C-16.10385605 7.25134918 -16.10385605 7.25134918 -17.81558228 7.25994873 C-19.35278175 7.253657 -19.35278175 7.253657 -20.92103577 7.24723816 C-21.81052445 7.24778293 -22.70001314 7.24832769 -23.61645603 7.24888897 C-26.16568563 6.98269915 -27.80235071 6.28594777 -30 5 C-26.42649959 4.18101378 -23.14340521 3.88188042 -19.48046875 3.90234375 C-18.45888672 3.90556641 -17.43730469 3.90878906 -16.38476562 3.91210938 C-15.32966797 3.92048828 -14.27457031 3.92886719 -13.1875 3.9375 C-12.11306641 3.94201172 -11.03863281 3.94652344 -9.93164062 3.95117188 C-7.28770317 3.96292271 -4.64388048 3.97935213 -2 4 C-1.34 2.68 -0.68 1.36 0 0 Z " fill="#D2D2D2" transform="translate(202,274)"/>
<path d="M0 0 C63.69 0 127.38 0 193 0 C193 2.64 193 5.28 193 8 C180.75761126 8.9456666 168.70347838 8.98772058 156.4375 8.5625 C154.73244354 8.50906981 153.02736522 8.45633235 151.32226562 8.40429688 C147.2145493 8.27747162 143.10723833 8.14142985 139 8 C141 7 143 6 145 5 C144.67 4.01 144.34 3.02 144 2 C110.67 2 77.34 2 43 2 C42.34 3.32 41.68 4.64 41 6 C32.09 6 23.18 6 14 6 C14.99 6.66 15.98 7.32 17 8 C15.02 8 13.04 8 11 8 C11 7.67 11 7.34 11 7 C10.38511719 6.96261719 9.77023438 6.92523438 9.13671875 6.88671875 C8.32847656 6.82097656 7.52023438 6.75523437 6.6875 6.6875 C5.88699219 6.62949219 5.08648437 6.57148438 4.26171875 6.51171875 C1.63727666 5.91793306 0.69179328 5.04219706 -1 3 C-0.67 2.01 -0.34 1.02 0 0 Z " fill="#949494" transform="translate(159,273)"/>
<path d="M0 0 C4.35988072 -0.09890664 8.71916673 -0.17148376 13.07983398 -0.21972656 C14.56302261 -0.23983759 16.04613199 -0.26713074 17.52905273 -0.30175781 C19.66149435 -0.35030352 21.79288777 -0.37297195 23.92578125 -0.390625 C25.20880127 -0.41157227 26.49182129 -0.43251953 27.8137207 -0.45410156 C31 0 31 0 32.78710938 1.98632812 C33.18736328 2.65083984 33.58761719 3.31535156 34 4 C36.49407252 4.6950739 36.49407252 4.6950739 39.1875 4.75 C40.53908203 4.83507812 40.53908203 4.83507812 41.91796875 4.921875 C42.60503906 4.94765625 43.29210937 4.9734375 44 5 C43.67 5.66 43.34 6.32 43 7 C15.61 7 -11.78 7 -40 7 C-40 6.67 -40 6.34 -40 6 C-24.82 6 -9.64 6 6 6 C3.525 5.01 3.525 5.01 1 4 C0.1875 1.875 0.1875 1.875 0 0 Z " fill="#C9C9C9" transform="translate(127,274)"/>
<path d="M0 0 C6.6 0 13.2 0 20 0 C19.67 1.32 19.34 2.64 19 4 C18.34 4 17.68 4 17 4 C17 4.66 17 5.32 17 6 C17.99 6.33 18.98 6.66 20 7 C13.52216941 7.05070326 7.04438999 7.08573492 0.56640625 7.10986328 C-1.63738925 7.11992183 -3.8411714 7.13357026 -6.04492188 7.15087891 C-9.21227309 7.1751334 -12.37944787 7.1864846 -15.546875 7.1953125 C-16.53242371 7.20563507 -17.51797241 7.21595764 -18.53338623 7.22659302 C-19.4540387 7.22674408 -20.37469116 7.22689514 -21.32324219 7.22705078 C-22.53569611 7.23371262 -22.53569611 7.23371262 -23.77264404 7.24050903 C-26.23856351 6.97424 -27.86542578 6.23223044 -30 5 C-26.42649959 4.18101378 -23.14340521 3.88188042 -19.48046875 3.90234375 C-18.45888672 3.90556641 -17.43730469 3.90878906 -16.38476562 3.91210938 C-15.32966797 3.92048828 -14.27457031 3.92886719 -13.1875 3.9375 C-12.11306641 3.94201172 -11.03863281 3.94652344 -9.93164062 3.95117188 C-7.28770317 3.96292271 -4.64388048 3.97935213 -2 4 C-1.34 2.68 -0.68 1.36 0 0 Z " fill="#CDCDCD" transform="translate(202,274)"/>
<path d="M0 0 C12.54 0 25.08 0 38 0 C38.495 1.98 38.495 1.98 39 4 C38 5 38 5 35.40795898 5.11352539 C34.28204346 5.10828857 33.15612793 5.10305176 31.99609375 5.09765625 C30.78115234 5.09443359 29.56621094 5.09121094 28.31445312 5.08789062 C27.03505859 5.07951172 25.75566406 5.07113281 24.4375 5.0625 C23.15423828 5.05798828 21.87097656 5.05347656 20.54882812 5.04882812 C17.36583978 5.03699545 14.18294238 5.02051068 11 5 C11.99 5.66 12.98 6.32 14 7 C12.02 7 10.04 7 8 7 C8 6.67 8 6.34 8 6 C5.03 5.67 2.06 5.34 -1 5 C-0.67 3.35 -0.34 1.7 0 0 Z " fill="#B3B3B3" transform="translate(162,274)"/>
<path d="M0 0 C55.44 0 110.88 0 168 0 C168 0.33 168 0.66 168 1 C167.03644057 1.00496522 167.03644057 1.00496522 166.0534153 1.01003075 C150.43875957 1.09117414 134.82421247 1.18323784 119.20969582 1.28752708 C111.65869812 1.33769549 104.10771152 1.3841378 96.55664062 1.421875 C89.97679964 1.45476777 83.39704366 1.49458373 76.81729639 1.54279006 C73.33185133 1.56808225 69.84646285 1.58985533 66.36095047 1.60334396 C62.47441781 1.61851402 58.58809245 1.64913758 54.70166016 1.68115234 C53.54000839 1.68331253 52.37835663 1.68547272 51.1815033 1.68769836 C49.59972542 1.70444359 49.59972542 1.70444359 47.98599243 1.7215271 C47.06604303 1.72705786 46.14609364 1.73258862 45.19826698 1.73828697 C42.792799 1.79483136 42.792799 1.79483136 41 4 C41 3.01 41 2.02 41 1 C28.46 1 15.92 1 3 1 C3 2.32 3 3.64 3 5 C1.68 4.34 0.36 3.68 -1 3 C-0.67 2.01 -0.34 1.02 0 0 Z " fill="#7F7F7F" transform="translate(159,273)"/>
<path d="M0 0 C2.97922593 -0.02683987 5.95821295 -0.04676037 8.9375 -0.0625 C9.78763672 -0.07087891 10.63777344 -0.07925781 11.51367188 -0.08789062 C12.32255859 -0.09111328 13.13144531 -0.09433594 13.96484375 -0.09765625 C14.7137085 -0.10289307 15.46257324 -0.10812988 16.23413086 -0.11352539 C18 0 18 0 19 1 C19.25 4.4375 19.25 4.4375 19 8 C15.36314463 10.42457025 12.63767221 10.29768407 8.4375 10.25 C7.75236328 10.25773437 7.06722656 10.26546875 6.36132812 10.2734375 C1.2533867 10.2533867 1.2533867 10.2533867 -1 8 C-0.96712417 5.27130593 -0.43602229 2.7033382 0 0 Z " fill="#777676" transform="translate(6,273)"/>
<path d="M0 0 C3.29159316 -0.05790353 6.58305603 -0.09356261 9.875 -0.125 C10.81214844 -0.14175781 11.74929687 -0.15851563 12.71484375 -0.17578125 C13.61074219 -0.18222656 14.50664063 -0.18867188 15.4296875 -0.1953125 C16.25710449 -0.20578613 17.08452148 -0.21625977 17.93701172 -0.22705078 C20 0 20 0 22 2 C22 2.66 22 3.32 22 4 C21.67 4.33 21.34 4.66 21 5 C21.99 5.66 22.98 6.32 24 7 C20.75099666 7.22644569 17.50090961 7.42797517 14.25 7.625 C13.32960938 7.68945312 12.40921875 7.75390625 11.4609375 7.8203125 C10.12675781 7.89765625 10.12675781 7.89765625 8.765625 7.9765625 C7.94868164 8.02893066 7.13173828 8.08129883 6.29003906 8.13525391 C3.73159732 7.98414765 2.19131832 7.28926961 0 6 C0 4 0 2 0 0 Z " fill="#959595" transform="translate(34,274)"/>
<path d="M0 0 C7.26 0 14.52 0 22 0 C21.34 1.98 20.68 3.96 20 6 C17.16140091 7.36006653 14.13228282 7.11666026 11.015625 7.09765625 C10.08105469 7.09443359 9.14648438 7.09121094 8.18359375 7.08789062 C7.21550781 7.07951172 6.24742187 7.07113281 5.25 7.0625 C4.26644531 7.05798828 3.28289062 7.05347656 2.26953125 7.04882812 C-0.15370791 7.03706483 -2.57682273 7.02062684 -5 7 C-3 6 -1 5 1 4 C0.67 2.68 0.34 1.36 0 0 Z " fill="#B1B1B1" transform="translate(303,274)"/>
<path d="M0 0 C5.28 0 10.56 0 16 0 C16.66 2.31 17.32 4.62 18 7 C15.75006641 7.02707139 13.50003905 7.04642829 11.25 7.0625 C9.99703125 7.07410156 8.7440625 7.08570313 7.453125 7.09765625 C4.71463499 7.02021027 2.58119707 6.82780815 0 6 C0 4.02 0 2.04 0 0 Z " fill="#BFBFBF" transform="translate(54,274)"/>
<path d="M0 0 C8.25 0 16.5 0 25 0 C25 2.64 25 5.28 25 8 C21.04 8 17.08 8 13 8 C12.67 6.35 12.34 4.7 12 3 C12.33 2.67 12.66 2.34 13 2 C8.71 1.67 4.42 1.34 0 1 C0 0.67 0 0.34 0 0 Z " fill="#9D9D9D" transform="translate(327,273)"/>
<path d="M0 0 C0.99 0.66 1.98 1.32 3 2 C5.50896686 2.45601261 5.50896686 2.45601261 8.1875 2.625 C9.08855469 2.69976562 9.98960937 2.77453125 10.91796875 2.8515625 C11.60503906 2.90054687 12.29210937 2.94953125 13 3 C12.67 3.66 12.34 4.32 12 5 C-15.39 5 -42.78 5 -71 5 C-71 4.67 -71 4.34 -71 4 C-35.855 3.505 -35.855 3.505 0 3 C0 2.01 0 1.02 0 0 Z " fill="#C1C1C1" transform="translate(158,276)"/>
<path d="M0 0 C1.79244141 0.01740234 1.79244141 0.01740234 3.62109375 0.03515625 C5.41740234 0.04869141 5.41740234 0.04869141 7.25 0.0625 C8.17683594 0.07410156 9.10367187 0.08570313 10.05859375 0.09765625 C10.71859375 1.41765625 11.37859375 2.73765625 12.05859375 4.09765625 C8.82492596 7.33132404 5.2397208 7.14971368 0.8515625 7.1953125 C-0.68362434 7.18872372 -2.21879641 7.17688419 -3.75390625 7.16015625 C-4.93629883 7.15338867 -4.93629883 7.15338867 -6.14257812 7.14648438 C-8.07555386 7.13476937 -10.00849018 7.11683623 -11.94140625 7.09765625 C-11.94140625 6.76765625 -11.94140625 6.43765625 -11.94140625 6.09765625 C-7.48640625 5.60265625 -7.48640625 5.60265625 -2.94140625 5.09765625 C-3.27140625 3.77765625 -3.60140625 2.45765625 -3.94140625 1.09765625 C-2.94140625 0.09765625 -2.94140625 0.09765625 0 0 Z " fill="#C6C6C6" transform="translate(292.94140625,273.90234375)"/>
<path d="M0 0 C0.66 0.33 1.32 0.66 2 1 C1.34 2.32 0.68 3.64 0 5 C6.6 5.33 13.2 5.66 20 6 C20 6.33 20 6.66 20 7 C13.52216941 7.05070326 7.04438999 7.08573492 0.56640625 7.10986328 C-1.63738925 7.11992183 -3.8411714 7.13357026 -6.04492188 7.15087891 C-9.21227309 7.1751334 -12.37944787 7.1864846 -15.546875 7.1953125 C-16.53242371 7.20563507 -17.51797241 7.21595764 -18.53338623 7.22659302 C-19.4540387 7.22674408 -20.37469116 7.22689514 -21.32324219 7.22705078 C-22.53569611 7.23371262 -22.53569611 7.23371262 -23.77264404 7.24050903 C-26.23856351 6.97424 -27.86542578 6.23223044 -30 5 C-26.42649959 4.18101378 -23.14340521 3.88188042 -19.48046875 3.90234375 C-18.45888672 3.90556641 -17.43730469 3.90878906 -16.38476562 3.91210938 C-15.32966797 3.92048828 -14.27457031 3.92886719 -13.1875 3.9375 C-12.11306641 3.94201172 -11.03863281 3.94652344 -9.93164062 3.95117188 C-7.28770317 3.96292271 -4.64388048 3.97935213 -2 4 C-1.34 2.68 -0.68 1.36 0 0 Z " fill="#C1C1C1" transform="translate(202,274)"/>
<path d="M0 0 C4.29 0 8.58 0 13 0 C12.01 0.33 11.02 0.66 10 1 C10.20625 1.598125 10.4125 2.19625 10.625 2.8125 C11 5 11 5 9 8 C6.2572492 8.47114738 3.80441103 8.17805784 1 8 C0 7 0 7 -0.0625 3.4375 C-0.041875 2.303125 -0.02125 1.16875 0 0 Z " fill="#979797" transform="translate(11,273)"/>
<path d="M0 0 C3.3 0 6.6 0 10 0 C9.25 2.9375 9.25 2.9375 8 6 C4.83006264 7.26797495 1.62545652 7.10268401 -1.75 7.0625 C-2.73484375 7.05347656 -3.7196875 7.04445313 -4.734375 7.03515625 C-5.48203125 7.02355469 -6.2296875 7.01195312 -7 7 C-7 6.67 -7 6.34 -7 6 C-5.02 5.67 -3.04 5.34 -1 5 C-0.67 3.35 -0.34 1.7 0 0 Z " fill="#A4A4A4" transform="translate(315,274)"/>
<path d="M0 0 C14.19 0 28.38 0 43 0 C42.34 1.32 41.68 2.64 41 4 C41 3.01 41 2.02 41 1 C28.46 1 15.92 1 3 1 C3 2.32 3 3.64 3 5 C1.68 4.34 0.36 3.68 -1 3 C-0.67 2.01 -0.34 1.02 0 0 Z " fill="#777776" transform="translate(159,273)"/>
<path d="M0 0 C2.31 0 4.62 0 7 0 C7.0825 0.78375 7.165 1.5675 7.25 2.375 C7.72806339 5.14749104 7.72806339 5.14749104 10.0625 6.3125 C10.701875 6.539375 11.34125 6.76625 12 7 C3.42857143 7.14285714 3.42857143 7.14285714 0 6 C0 4.02 0 2.04 0 0 Z " fill="#B3B3B3" transform="translate(54,274)"/>
<path d="M0 0 C2.31 0 4.62 0 7 0 C6.67 0.99 6.34 1.98 6 3 C6.66 3.33 7.32 3.66 8 4 C7.34 5.32 6.68 6.64 6 8 C3.03 7.505 3.03 7.505 0 7 C-1.04449911 3.86650268 -0.93423645 3.01031744 0 0 Z " fill="#858585" transform="translate(34,274)"/>
<path d="M0 0 C2.875 -0.125 2.875 -0.125 6 0 C8 2 8 2 8 4 C7.67 4.33 7.34 4.66 7 5 C7.99 5.66 8.98 6.32 10 7 C3.375 7.25 3.375 7.25 0 5 C-0.1875 2.375 -0.1875 2.375 0 0 Z " fill="#A4A4A4" transform="translate(48,274)"/>
<path d="M0 0 C1.2065625 0.0309375 1.2065625 0.0309375 2.4375 0.0625 C3.0975 1.3825 3.7575 2.7025 4.4375 4.0625 C1.67526722 6.82473278 -0.76956617 6.64106291 -4.5625 7.0625 C-3.5234375 0.0859375 -3.5234375 0.0859375 0 0 Z " fill="#BDBDBD" transform="translate(300.5625,273.9375)"/>
<path d="M0 0 C1.2065625 0.0309375 1.2065625 0.0309375 2.4375 0.0625 C3.0625 2.4375 3.0625 2.4375 3.4375 5.0625 C1.4375 7.0625 1.4375 7.0625 -1.1875 7.1875 C-1.97125 7.14625 -2.755 7.105 -3.5625 7.0625 C-3.60504356 5.06295254 -3.60330783 3.06208364 -3.5625 1.0625 C-2.5625 0.0625 -2.5625 0.0625 0 0 Z " fill="#A7A7A7" transform="translate(15.5625,273.9375)"/>
<path d="M0 0 C1.98 0 3.96 0 6 0 C7.04449911 3.13349732 6.93423645 3.98968256 6 7 C4.35 7 2.7 7 1 7 C0 2.25 0 2.25 0 0 Z " fill="#7B7A7A" transform="translate(28,274)"/>
<path d="M0 0 C1.65 0 3.3 0 5 0 C5.6875 2.3125 5.6875 2.3125 6 5 C4.8125 6.875 4.8125 6.875 3 8 C0.8125 7.6875 0.8125 7.6875 -1 7 C-0.649375 6.21625 -0.29875 5.4325 0.0625 4.625 C0.371875 3.75875 0.68125 2.8925 1 2 C0.67 1.34 0.34 0.68 0 0 Z " fill="#858585" transform="translate(335,274)"/>
<path d="M0 0 C1.98 0 3.96 0 6 0 C6 2.31 6 4.62 6 7 C4.35 6.67 2.7 6.34 1 6 C0.67 4.02 0.34 2.04 0 0 Z " fill="#B9B9B9" transform="translate(345,274)"/>
<path d="M0 0 C1.65 0 3.3 0 5 0 C4.01 0.495 4.01 0.495 3 1 C3.33 3.97 3.66 6.94 4 10 C2.35 9.67 0.7 9.34 -1 9 C-0.67 6.03 -0.34 3.06 0 0 Z " fill="#646463" transform="translate(6,273)"/>
<path d="M0 0 C1.32 0 2.64 0 4 0 C4 2.31 4 4.62 4 7 C2.68 7.33 1.36 7.66 0 8 C-1.43088528 5.13822943 -0.59991697 3.06624227 0 0 Z " fill="#808080" transform="translate(21,274)"/>
<path d="M0 0 C1.98 0 3.96 0 6 0 C6.5625 1.9375 6.5625 1.9375 7 4 C6 5 6 5 3.4375 5.0625 C2.2309375 5.0315625 2.2309375 5.0315625 1 5 C0.67 3.35 0.34 1.7 0 0 Z " fill="#9B9B9B" transform="translate(194,274)"/>
<path d="M0 0 C1.65 0 3.3 0 5 0 C5.33 0.99 5.66 1.98 6 3 C4 5 4 5 1.375 5.125 C0.59125 5.08375 -0.1925 5.0425 -1 5 C-0.67 3.35 -0.34 1.7 0 0 Z " fill="#9E9E9E" transform="translate(162,274)"/>
<path d="M0 0 C1.98 0.495 1.98 0.495 4 1 C4 2.65 4 4.3 4 6 C2.35 5.67 0.7 5.34 -1 5 C-0.67 3.35 -0.34 1.7 0 0 Z " fill="#C9C9C9" transform="translate(67,274)"/>
<path d="M0 0 C0.99 0 1.98 0 3 0 C3.33 2.31 3.66 4.62 4 7 C2.68 6.67 1.36 6.34 0 6 C-1.125 2.25 -1.125 2.25 0 0 Z " fill="#959595" transform="translate(340,274)"/>
<path d="M0 0 C0.99 0.33 1.98 0.66 3 1 C3.33 2.98 3.66 4.96 4 7 C2.68 6.67 1.36 6.34 0 6 C0 4.02 0 2.04 0 0 Z " fill="#A4A4A4" transform="translate(343,274)"/>
</svg>
