<svg width="900" height="450" viewBox="0 0 900 450" fill="none" xmlns="http://www.w3.org/2000/svg">
    <path d="M75.0911 194.439L3.01217 231.961L27.4477 154.462L75.0911 194.439Z" stroke="#a1a1aa" stroke-width="3"/>
    <path d="M107.414 1.5H419C468.429 1.5 508.5 41.5705 508.5 91V108C508.5 157.429 468.429 197.5 419 197.5H107.115C57.0693 197.5 16.7484 156.464 17.6284 106.426L17.9274 89.4261C18.7858 40.6177 58.5976 1.5 107.414 1.5Z" stroke="#a1a1aa" stroke-width="3"/>
    <path d="M824.909 409.439L896.988 446.961L872.552 369.462L824.909 409.439Z" stroke="#a1a1aa" stroke-width="3"/>
    <path d="M792.586 216.5H481C431.571 216.5 391.5 256.571 391.5 306V323C391.5 372.429 431.571 412.5 481 412.5H792.885C842.931 412.5 883.252 371.464 882.372 321.426L882.073 304.426C881.214 255.618 841.402 216.5 792.586 216.5Z" stroke="#a1a1aa" stroke-width="3"/>
</svg>