<svg width="607" height="534" viewBox="0 0 607 534" fill="none" xmlns="http://www.w3.org/2000/svg">
    <rect x="77.5" y="161.5" width="19" height="210" rx="9.5" stroke="#a1a1aa" stroke-width="3"/>
    <rect x="39.5" y="181.5" width="19" height="168" rx="9.5" stroke="#a1a1aa" stroke-width="3"/>
    <rect x="1.5" y="211.5" width="18" height="104" rx="9" stroke="#a1a1aa" stroke-width="3"/>
    <rect x="113.5" y="54.5" width="18" height="424" rx="9" stroke="#a1a1aa" stroke-width="3"/>
    <rect x="221.5" y="215.5" width="19" height="103" rx="9.5" stroke="#a1a1aa" stroke-width="3"/>
    <rect x="185.5" y="1.5" width="19" height="531" rx="9.5" stroke="#a1a1aa" stroke-width="3"/>
    <rect x="297.5" y="1.5" width="19" height="531" rx="9.5" stroke="#a1a1aa" stroke-width="3"/>
    <rect x="258.5" y="129.5" width="17" height="275" rx="8.5" stroke="#a1a1aa" stroke-width="3"/>
    <rect x="150.5" y="108.5" width="18" height="317" rx="9" stroke="#a1a1aa" stroke-width="3"/>
    <rect x="532.5" y="370.5" width="17" height="211" rx="8.5" transform="rotate(-180 532.5 370.5)" stroke="#a1a1aa" stroke-width="3"/>
    <rect x="569.5" y="336.5" width="18" height="147" rx="9" transform="rotate(-180 569.5 336.5)" stroke="#a1a1aa" stroke-width="3"/>
    <rect x="605.5" y="317.5" width="18" height="104" rx="9" transform="rotate(-180 605.5 317.5)" stroke="#a1a1aa" stroke-width="3"/>
    <rect x="497.5" y="478.5" width="19" height="424" rx="9.5" transform="rotate(-180 497.5 478.5)" stroke="#a1a1aa" stroke-width="3"/>
    <rect x="388.5" y="320.5" width="18" height="104" rx="9" transform="rotate(-180 388.5 320.5)" stroke="#a1a1aa" stroke-width="3"/>
    <rect x="425.5" y="532.5" width="18" height="531" rx="9" transform="rotate(-180 425.5 532.5)" stroke="#a1a1aa" stroke-width="3"/>
    <rect x="353.5" y="405.5" width="19" height="275" rx="9.5" transform="rotate(-180 353.5 405.5)" stroke="#a1a1aa" stroke-width="3"/>
    <rect x="461.5" y="425.5" width="18" height="317" rx="9" transform="rotate(-180 461.5 425.5)" stroke="#a1a1aa" stroke-width="3"/>
</svg>
